<svg xmlns="http://www.w3.org/2000/svg" xmlns:xlink="http://www.w3.org/1999/xlink" width="119" zoomAndPan="magnify" viewBox="0 0 89.25 41.25" height="55" preserveAspectRatio="xMidYMid meet" version="1.0"><defs><g/><clipPath id="2208f2e095"><path d="M 0.40625 1 L 4 1 L 4 5 L 0.40625 5 Z M 0.40625 1 " clip-rule="nonzero"/></clipPath><clipPath id="d54899aef1"><path d="M 0.40625 7 L 4 7 L 4 11 L 0.40625 11 Z M 0.40625 7 " clip-rule="nonzero"/></clipPath><clipPath id="3ae5e78aea"><path d="M 0.40625 12 L 4 12 L 4 16 L 0.40625 16 Z M 0.40625 12 " clip-rule="nonzero"/></clipPath><clipPath id="62fa909794"><rect x="0" width="24" y="0" height="18"/></clipPath></defs><g transform="matrix(1, 0, 0, 1, 54, 11)"><g clip-path="url(#62fa909794)"><g clip-path="url(#2208f2e095)"><g fill="#15443e" fill-opacity="1"><g transform="translate(0.46604, 4.936914)"><g><path d="M 2.625 -1.703125 L 3.328125 -1.703125 L 3.328125 -0.359375 C 3.140625 -0.222656 2.925781 -0.117188 2.6875 -0.046875 C 2.457031 0.0234375 2.222656 0.0625 1.984375 0.0625 C 1.640625 0.0625 1.332031 -0.0078125 1.0625 -0.15625 C 0.789062 -0.300781 0.578125 -0.503906 0.421875 -0.765625 C 0.265625 -1.023438 0.1875 -1.320312 0.1875 -1.65625 C 0.1875 -1.976562 0.265625 -2.269531 0.421875 -2.53125 C 0.578125 -2.789062 0.789062 -2.992188 1.0625 -3.140625 C 1.34375 -3.285156 1.65625 -3.359375 2 -3.359375 C 2.289062 -3.359375 2.550781 -3.304688 2.78125 -3.203125 C 3.019531 -3.109375 3.222656 -2.96875 3.390625 -2.78125 L 2.890625 -2.328125 C 2.648438 -2.578125 2.363281 -2.703125 2.03125 -2.703125 C 1.820312 -2.703125 1.632812 -2.65625 1.46875 -2.5625 C 1.3125 -2.476562 1.1875 -2.359375 1.09375 -2.203125 C 1 -2.046875 0.953125 -1.863281 0.953125 -1.65625 C 0.953125 -1.445312 1 -1.257812 1.09375 -1.09375 C 1.1875 -0.9375 1.3125 -0.8125 1.46875 -0.71875 C 1.632812 -0.632812 1.820312 -0.59375 2.03125 -0.59375 C 2.25 -0.59375 2.445312 -0.640625 2.625 -0.734375 Z M 2.625 -1.703125 "/></g></g></g></g><g fill="#15443e" fill-opacity="1"><g transform="translate(4.10077, 4.936914)"><g><path d="M 0.34375 -3.5 L 1.078125 -3.5 L 1.078125 0 L 0.34375 0 Z M 0.34375 -3.5 "/></g></g></g><g fill="#15443e" fill-opacity="1"><g transform="translate(5.519779, 4.936914)"><g><path d="M 1.546875 0.03125 C 1.273438 0.03125 1.035156 -0.0195312 0.828125 -0.125 C 0.617188 -0.238281 0.453125 -0.394531 0.328125 -0.59375 C 0.210938 -0.789062 0.15625 -1.015625 0.15625 -1.265625 C 0.15625 -1.515625 0.210938 -1.738281 0.328125 -1.9375 C 0.453125 -2.132812 0.617188 -2.289062 0.828125 -2.40625 C 1.035156 -2.519531 1.273438 -2.578125 1.546875 -2.578125 C 1.816406 -2.578125 2.054688 -2.519531 2.265625 -2.40625 C 2.472656 -2.289062 2.632812 -2.132812 2.75 -1.9375 C 2.875 -1.738281 2.9375 -1.515625 2.9375 -1.265625 C 2.9375 -1.015625 2.875 -0.789062 2.75 -0.59375 C 2.632812 -0.394531 2.472656 -0.238281 2.265625 -0.125 C 2.054688 -0.0195312 1.816406 0.03125 1.546875 0.03125 Z M 1.546875 -0.5625 C 1.734375 -0.5625 1.882812 -0.625 2 -0.75 C 2.125 -0.882812 2.1875 -1.054688 2.1875 -1.265625 C 2.1875 -1.484375 2.125 -1.65625 2 -1.78125 C 1.882812 -1.90625 1.734375 -1.96875 1.546875 -1.96875 C 1.359375 -1.96875 1.203125 -1.90625 1.078125 -1.78125 C 0.953125 -1.65625 0.890625 -1.484375 0.890625 -1.265625 C 0.890625 -1.054688 0.953125 -0.882812 1.078125 -0.75 C 1.203125 -0.625 1.359375 -0.5625 1.546875 -0.5625 Z M 1.546875 -0.5625 "/></g></g></g><g fill="#15443e" fill-opacity="1"><g transform="translate(8.607653, 4.936914)"><g><path d="M 1.84375 -2.578125 C 2.070312 -2.578125 2.285156 -2.519531 2.484375 -2.40625 C 2.679688 -2.300781 2.832031 -2.148438 2.9375 -1.953125 C 3.050781 -1.753906 3.109375 -1.523438 3.109375 -1.265625 C 3.109375 -1.003906 3.050781 -0.773438 2.9375 -0.578125 C 2.832031 -0.378906 2.679688 -0.226562 2.484375 -0.125 C 2.285156 -0.0195312 2.070312 0.03125 1.84375 0.03125 C 1.488281 0.03125 1.222656 -0.078125 1.046875 -0.296875 L 1.046875 0 L 0.34375 0 L 0.34375 -3.5 L 1.078125 -3.5 L 1.078125 -2.265625 C 1.265625 -2.472656 1.519531 -2.578125 1.84375 -2.578125 Z M 1.71875 -0.5625 C 1.90625 -0.5625 2.054688 -0.625 2.171875 -0.75 C 2.296875 -0.882812 2.359375 -1.054688 2.359375 -1.265625 C 2.359375 -1.484375 2.296875 -1.65625 2.171875 -1.78125 C 2.054688 -1.90625 1.90625 -1.96875 1.71875 -1.96875 C 1.53125 -1.96875 1.375 -1.90625 1.25 -1.78125 C 1.125 -1.65625 1.0625 -1.484375 1.0625 -1.265625 C 1.0625 -1.054688 1.125 -0.882812 1.25 -0.75 C 1.375 -0.625 1.53125 -0.5625 1.71875 -0.5625 Z M 1.71875 -0.5625 "/></g></g></g><g fill="#15443e" fill-opacity="1"><g transform="translate(11.818097, 4.936914)"><g><path d="M 1.359375 -2.578125 C 1.753906 -2.578125 2.054688 -2.484375 2.265625 -2.296875 C 2.472656 -2.109375 2.578125 -1.828125 2.578125 -1.453125 L 2.578125 0 L 1.890625 0 L 1.890625 -0.3125 C 1.753906 -0.0820312 1.5 0.03125 1.125 0.03125 C 0.925781 0.03125 0.753906 0 0.609375 -0.0625 C 0.472656 -0.125 0.363281 -0.210938 0.28125 -0.328125 C 0.207031 -0.453125 0.171875 -0.585938 0.171875 -0.734375 C 0.171875 -0.960938 0.257812 -1.144531 0.4375 -1.28125 C 0.613281 -1.414062 0.890625 -1.484375 1.265625 -1.484375 L 1.84375 -1.484375 C 1.84375 -1.648438 1.796875 -1.773438 1.703125 -1.859375 C 1.609375 -1.941406 1.460938 -1.984375 1.265625 -1.984375 C 1.128906 -1.984375 0.992188 -1.960938 0.859375 -1.921875 C 0.734375 -1.878906 0.625 -1.820312 0.53125 -1.75 L 0.265625 -2.265625 C 0.410156 -2.367188 0.578125 -2.445312 0.765625 -2.5 C 0.960938 -2.550781 1.160156 -2.578125 1.359375 -2.578125 Z M 1.3125 -0.453125 C 1.4375 -0.453125 1.546875 -0.476562 1.640625 -0.53125 C 1.734375 -0.59375 1.800781 -0.679688 1.84375 -0.796875 L 1.84375 -1.0625 L 1.34375 -1.0625 C 1.039062 -1.0625 0.890625 -0.960938 0.890625 -0.765625 C 0.890625 -0.671875 0.925781 -0.59375 1 -0.53125 C 1.070312 -0.476562 1.175781 -0.453125 1.3125 -0.453125 Z M 1.3125 -0.453125 "/></g></g></g><g fill="#15443e" fill-opacity="1"><g transform="translate(14.726826, 4.936914)"><g><path d="M 0.34375 -3.5 L 1.078125 -3.5 L 1.078125 0 L 0.34375 0 Z M 0.34375 -3.5 "/></g></g></g><g clip-path="url(#d54899aef1)"><g fill="#15443e" fill-opacity="1"><g transform="translate(0.46604, 10.436902)"><g><path d="M 2.5 0 L 1.859375 -0.921875 L 1.15625 -0.921875 L 1.15625 0 L 0.390625 0 L 0.390625 -3.296875 L 1.828125 -3.296875 C 2.117188 -3.296875 2.367188 -3.25 2.578125 -3.15625 C 2.796875 -3.0625 2.960938 -2.921875 3.078125 -2.734375 C 3.191406 -2.554688 3.25 -2.347656 3.25 -2.109375 C 3.25 -1.859375 3.191406 -1.644531 3.078125 -1.46875 C 2.960938 -1.289062 2.796875 -1.15625 2.578125 -1.0625 L 3.3125 0 Z M 2.484375 -2.109375 C 2.484375 -2.296875 2.421875 -2.4375 2.296875 -2.53125 C 2.179688 -2.632812 2.007812 -2.6875 1.78125 -2.6875 L 1.15625 -2.6875 L 1.15625 -1.53125 L 1.78125 -1.53125 C 2.007812 -1.53125 2.179688 -1.578125 2.296875 -1.671875 C 2.421875 -1.773438 2.484375 -1.921875 2.484375 -2.109375 Z M 2.484375 -2.109375 "/></g></g></g></g><g fill="#15443e" fill-opacity="1"><g transform="translate(3.931059, 10.436902)"><g><path d="M 2.859375 -2.53125 L 1.71875 0.15625 C 1.59375 0.445312 1.445312 0.648438 1.28125 0.765625 C 1.113281 0.890625 0.90625 0.953125 0.65625 0.953125 C 0.53125 0.953125 0.398438 0.929688 0.265625 0.890625 C 0.140625 0.847656 0.0351562 0.789062 -0.046875 0.71875 L 0.21875 0.203125 C 0.28125 0.253906 0.347656 0.289062 0.421875 0.3125 C 0.492188 0.34375 0.566406 0.359375 0.640625 0.359375 C 0.734375 0.359375 0.8125 0.332031 0.875 0.28125 C 0.945312 0.238281 1.003906 0.160156 1.046875 0.046875 L 1.0625 0.015625 L -0.03125 -2.53125 L 0.71875 -2.53125 L 1.4375 -0.8125 L 2.15625 -2.53125 Z M 2.859375 -2.53125 "/></g></g></g><g fill="#15443e" fill-opacity="1"><g transform="translate(6.750218, 10.436902)"><g><path d="M 2.890625 -2.53125 L 2.890625 0 L 2.203125 0 L 2.203125 -0.296875 C 2.097656 -0.191406 1.976562 -0.109375 1.84375 -0.046875 C 1.707031 0.00390625 1.5625 0.03125 1.40625 0.03125 C 1.070312 0.03125 0.804688 -0.0625 0.609375 -0.25 C 0.421875 -0.4375 0.328125 -0.722656 0.328125 -1.109375 L 0.328125 -2.53125 L 1.0625 -2.53125 L 1.0625 -1.21875 C 1.0625 -0.800781 1.234375 -0.59375 1.578125 -0.59375 C 1.753906 -0.59375 1.894531 -0.648438 2 -0.765625 C 2.101562 -0.878906 2.15625 -1.050781 2.15625 -1.28125 L 2.15625 -2.53125 Z M 2.890625 -2.53125 "/></g></g></g><g fill="#15443e" fill-opacity="1"><g transform="translate(9.98895, 10.436902)"><g><path d="M 2.953125 -2.53125 L 2.953125 -0.421875 C 2.953125 0.046875 2.832031 0.390625 2.59375 0.609375 C 2.351562 0.835938 2 0.953125 1.53125 0.953125 C 1.289062 0.953125 1.054688 0.921875 0.828125 0.859375 C 0.609375 0.804688 0.425781 0.722656 0.28125 0.609375 L 0.578125 0.078125 C 0.679688 0.160156 0.816406 0.226562 0.984375 0.28125 C 1.148438 0.332031 1.316406 0.359375 1.484375 0.359375 C 1.734375 0.359375 1.914062 0.300781 2.03125 0.1875 C 2.15625 0.0703125 2.21875 -0.0976562 2.21875 -0.328125 L 2.21875 -0.4375 C 2.03125 -0.226562 1.765625 -0.125 1.421875 -0.125 C 1.191406 -0.125 0.976562 -0.171875 0.78125 -0.265625 C 0.582031 -0.367188 0.425781 -0.515625 0.3125 -0.703125 C 0.207031 -0.890625 0.15625 -1.101562 0.15625 -1.34375 C 0.15625 -1.59375 0.207031 -1.804688 0.3125 -1.984375 C 0.425781 -2.171875 0.582031 -2.316406 0.78125 -2.421875 C 0.976562 -2.523438 1.191406 -2.578125 1.421875 -2.578125 C 1.785156 -2.578125 2.066406 -2.457031 2.265625 -2.21875 L 2.265625 -2.53125 Z M 1.5625 -0.734375 C 1.757812 -0.734375 1.921875 -0.789062 2.046875 -0.90625 C 2.171875 -1.019531 2.234375 -1.164062 2.234375 -1.34375 C 2.234375 -1.53125 2.171875 -1.679688 2.046875 -1.796875 C 1.921875 -1.910156 1.757812 -1.96875 1.5625 -1.96875 C 1.375 -1.96875 1.210938 -1.910156 1.078125 -1.796875 C 0.953125 -1.679688 0.890625 -1.53125 0.890625 -1.34375 C 0.890625 -1.164062 0.953125 -1.019531 1.078125 -0.90625 C 1.210938 -0.789062 1.375 -0.734375 1.5625 -0.734375 Z M 1.5625 -0.734375 "/></g></g></g><g fill="#15443e" fill-opacity="1"><g transform="translate(13.288965, 10.436902)"><g><path d="M 1.359375 -2.578125 C 1.753906 -2.578125 2.054688 -2.484375 2.265625 -2.296875 C 2.472656 -2.109375 2.578125 -1.828125 2.578125 -1.453125 L 2.578125 0 L 1.890625 0 L 1.890625 -0.3125 C 1.753906 -0.0820312 1.5 0.03125 1.125 0.03125 C 0.925781 0.03125 0.753906 0 0.609375 -0.0625 C 0.472656 -0.125 0.363281 -0.210938 0.28125 -0.328125 C 0.207031 -0.453125 0.171875 -0.585938 0.171875 -0.734375 C 0.171875 -0.960938 0.257812 -1.144531 0.4375 -1.28125 C 0.613281 -1.414062 0.890625 -1.484375 1.265625 -1.484375 L 1.84375 -1.484375 C 1.84375 -1.648438 1.796875 -1.773438 1.703125 -1.859375 C 1.609375 -1.941406 1.460938 -1.984375 1.265625 -1.984375 C 1.128906 -1.984375 0.992188 -1.960938 0.859375 -1.921875 C 0.734375 -1.878906 0.625 -1.820312 0.53125 -1.75 L 0.265625 -2.265625 C 0.410156 -2.367188 0.578125 -2.445312 0.765625 -2.5 C 0.960938 -2.550781 1.160156 -2.578125 1.359375 -2.578125 Z M 1.3125 -0.453125 C 1.4375 -0.453125 1.546875 -0.476562 1.640625 -0.53125 C 1.734375 -0.59375 1.800781 -0.679688 1.84375 -0.796875 L 1.84375 -1.0625 L 1.34375 -1.0625 C 1.039062 -1.0625 0.890625 -0.960938 0.890625 -0.765625 C 0.890625 -0.671875 0.925781 -0.59375 1 -0.53125 C 1.070312 -0.476562 1.175781 -0.453125 1.3125 -0.453125 Z M 1.3125 -0.453125 "/></g></g></g><g fill="#15443e" fill-opacity="1"><g transform="translate(16.197693, 10.436902)"><g><path d="M 1.4375 -1 L 1.078125 -0.640625 L 1.078125 0 L 0.34375 0 L 0.34375 -3.5 L 1.078125 -3.5 L 1.078125 -1.515625 L 2.15625 -2.53125 L 3.03125 -2.53125 L 1.96875 -1.46875 L 3.125 0 L 2.234375 0 Z M 1.4375 -1 "/></g></g></g><g fill="#15443e" fill-opacity="1"><g transform="translate(19.261997, 10.436902)"><g><path d="M 2.890625 -2.53125 L 2.890625 0 L 2.203125 0 L 2.203125 -0.296875 C 2.097656 -0.191406 1.976562 -0.109375 1.84375 -0.046875 C 1.707031 0.00390625 1.5625 0.03125 1.40625 0.03125 C 1.070312 0.03125 0.804688 -0.0625 0.609375 -0.25 C 0.421875 -0.4375 0.328125 -0.722656 0.328125 -1.109375 L 0.328125 -2.53125 L 1.0625 -2.53125 L 1.0625 -1.21875 C 1.0625 -0.800781 1.234375 -0.59375 1.578125 -0.59375 C 1.753906 -0.59375 1.894531 -0.648438 2 -0.765625 C 2.101562 -0.878906 2.15625 -1.050781 2.15625 -1.28125 L 2.15625 -2.53125 Z M 2.890625 -2.53125 "/></g></g></g><g clip-path="url(#3ae5e78aea)"><g fill="#15443e" fill-opacity="1"><g transform="translate(0.46604, 15.936889)"><g><path d="M 3.421875 -3.296875 L 3.421875 0 L 2.796875 0 L 1.140625 -2 L 1.140625 0 L 0.390625 0 L 0.390625 -3.296875 L 1.03125 -3.296875 L 2.671875 -1.296875 L 2.671875 -3.296875 Z M 3.421875 -3.296875 "/></g></g></g></g><g fill="#15443e" fill-opacity="1"><g transform="translate(4.275204, 15.936889)"><g><path d="M 2.828125 -1.265625 C 2.828125 -1.253906 2.820312 -1.1875 2.8125 -1.0625 L 0.890625 -1.0625 C 0.921875 -0.90625 1 -0.78125 1.125 -0.6875 C 1.257812 -0.59375 1.425781 -0.546875 1.625 -0.546875 C 1.75 -0.546875 1.863281 -0.566406 1.96875 -0.609375 C 2.070312 -0.648438 2.164062 -0.710938 2.25 -0.796875 L 2.640625 -0.375 C 2.398438 -0.101562 2.050781 0.03125 1.59375 0.03125 C 1.3125 0.03125 1.0625 -0.0195312 0.84375 -0.125 C 0.625 -0.238281 0.453125 -0.394531 0.328125 -0.59375 C 0.210938 -0.789062 0.15625 -1.015625 0.15625 -1.265625 C 0.15625 -1.515625 0.210938 -1.738281 0.328125 -1.9375 C 0.441406 -2.132812 0.601562 -2.289062 0.8125 -2.40625 C 1.019531 -2.519531 1.25 -2.578125 1.5 -2.578125 C 1.75 -2.578125 1.972656 -2.519531 2.171875 -2.40625 C 2.378906 -2.300781 2.539062 -2.148438 2.65625 -1.953125 C 2.769531 -1.753906 2.828125 -1.523438 2.828125 -1.265625 Z M 1.515625 -2.015625 C 1.347656 -2.015625 1.207031 -1.96875 1.09375 -1.875 C 0.976562 -1.78125 0.90625 -1.648438 0.875 -1.484375 L 2.140625 -1.484375 C 2.109375 -1.648438 2.035156 -1.78125 1.921875 -1.875 C 1.804688 -1.96875 1.671875 -2.015625 1.515625 -2.015625 Z M 1.515625 -2.015625 "/></g></g></g><g fill="#15443e" fill-opacity="1"><g transform="translate(7.249932, 15.936889)"><g><path d="M 1.984375 -0.125 C 1.910156 -0.0703125 1.816406 -0.03125 1.703125 0 C 1.597656 0.0195312 1.488281 0.03125 1.375 0.03125 C 1.070312 0.03125 0.835938 -0.0390625 0.671875 -0.1875 C 0.503906 -0.34375 0.421875 -0.570312 0.421875 -0.875 L 0.421875 -1.921875 L 0.03125 -1.921875 L 0.03125 -2.484375 L 0.421875 -2.484375 L 0.421875 -3.09375 L 1.171875 -3.09375 L 1.171875 -2.484375 L 1.796875 -2.484375 L 1.796875 -1.921875 L 1.171875 -1.921875 L 1.171875 -0.875 C 1.171875 -0.769531 1.195312 -0.6875 1.25 -0.625 C 1.300781 -0.570312 1.378906 -0.546875 1.484375 -0.546875 C 1.597656 -0.546875 1.695312 -0.578125 1.78125 -0.640625 Z M 1.984375 -0.125 "/></g></g></g><g fill="#15443e" fill-opacity="1"><g transform="translate(9.253514, 15.936889)"><g><path d="M 4.421875 -2.53125 L 3.5 0 L 2.78125 0 L 2.21875 -1.578125 L 1.625 0 L 0.921875 0 L 0 -2.53125 L 0.703125 -2.53125 L 1.296875 -0.828125 L 1.921875 -2.53125 L 2.546875 -2.53125 L 3.140625 -0.828125 L 3.765625 -2.53125 Z M 4.421875 -2.53125 "/></g></g></g><g fill="#15443e" fill-opacity="1"><g transform="translate(13.60011, 15.936889)"><g><path d="M 1.546875 0.03125 C 1.273438 0.03125 1.035156 -0.0195312 0.828125 -0.125 C 0.617188 -0.238281 0.453125 -0.394531 0.328125 -0.59375 C 0.210938 -0.789062 0.15625 -1.015625 0.15625 -1.265625 C 0.15625 -1.515625 0.210938 -1.738281 0.328125 -1.9375 C 0.453125 -2.132812 0.617188 -2.289062 0.828125 -2.40625 C 1.035156 -2.519531 1.273438 -2.578125 1.546875 -2.578125 C 1.816406 -2.578125 2.054688 -2.519531 2.265625 -2.40625 C 2.472656 -2.289062 2.632812 -2.132812 2.75 -1.9375 C 2.875 -1.738281 2.9375 -1.515625 2.9375 -1.265625 C 2.9375 -1.015625 2.875 -0.789062 2.75 -0.59375 C 2.632812 -0.394531 2.472656 -0.238281 2.265625 -0.125 C 2.054688 -0.0195312 1.816406 0.03125 1.546875 0.03125 Z M 1.546875 -0.5625 C 1.734375 -0.5625 1.882812 -0.625 2 -0.75 C 2.125 -0.882812 2.1875 -1.054688 2.1875 -1.265625 C 2.1875 -1.484375 2.125 -1.65625 2 -1.78125 C 1.882812 -1.90625 1.734375 -1.96875 1.546875 -1.96875 C 1.359375 -1.96875 1.203125 -1.90625 1.078125 -1.78125 C 0.953125 -1.65625 0.890625 -1.484375 0.890625 -1.265625 C 0.890625 -1.054688 0.953125 -0.882812 1.078125 -0.75 C 1.203125 -0.625 1.359375 -0.5625 1.546875 -0.5625 Z M 1.546875 -0.5625 "/></g></g></g><g fill="#15443e" fill-opacity="1"><g transform="translate(16.687984, 15.936889)"><g><path d="M 1.046875 -2.203125 C 1.128906 -2.328125 1.242188 -2.421875 1.390625 -2.484375 C 1.546875 -2.546875 1.722656 -2.578125 1.921875 -2.578125 L 1.921875 -1.890625 C 1.835938 -1.898438 1.78125 -1.90625 1.75 -1.90625 C 1.539062 -1.90625 1.375 -1.84375 1.25 -1.71875 C 1.132812 -1.601562 1.078125 -1.429688 1.078125 -1.203125 L 1.078125 0 L 0.34375 0 L 0.34375 -2.53125 L 1.046875 -2.53125 Z M 1.046875 -2.203125 "/></g></g></g><g fill="#15443e" fill-opacity="1"><g transform="translate(18.700995, 15.936889)"><g><path d="M 1.4375 -1 L 1.078125 -0.640625 L 1.078125 0 L 0.34375 0 L 0.34375 -3.5 L 1.078125 -3.5 L 1.078125 -1.515625 L 2.15625 -2.53125 L 3.03125 -2.53125 L 1.96875 -1.46875 L 3.125 0 L 2.234375 0 Z M 1.4375 -1 "/></g></g></g></g></g><g fill="#3b82f6" fill-opacity="1"><g transform="translate(8.493384, 27.216597)"><g><path d="M 8.375 -5.421875 L 8.375 -7.921875 L 14.796875 -7.921875 L 14.796875 -2.03125 C 14.171875 -1.425781 13.265625 -0.894531 12.078125 -0.4375 C 10.890625 0.0195312 9.691406 0.25 8.484375 0.25 C 6.929688 0.25 5.582031 -0.0703125 4.4375 -0.71875 C 3.289062 -1.363281 2.425781 -2.289062 1.84375 -3.5 C 1.269531 -4.707031 0.984375 -6.019531 0.984375 -7.4375 C 0.984375 -8.96875 1.304688 -10.332031 1.953125 -11.53125 C 2.597656 -12.726562 3.539062 -13.644531 4.78125 -14.28125 C 5.726562 -14.769531 6.90625 -15.015625 8.3125 -15.015625 C 10.144531 -15.015625 11.578125 -14.628906 12.609375 -13.859375 C 13.640625 -13.085938 14.304688 -12.023438 14.609375 -10.671875 L 11.640625 -10.125 C 11.429688 -10.84375 11.039062 -11.410156 10.46875 -11.828125 C 9.894531 -12.253906 9.175781 -12.46875 8.3125 -12.46875 C 7.007812 -12.46875 5.972656 -12.050781 5.203125 -11.21875 C 4.441406 -10.394531 4.0625 -9.171875 4.0625 -7.546875 C 4.0625 -5.796875 4.445312 -4.484375 5.21875 -3.609375 C 6 -2.734375 7.019531 -2.296875 8.28125 -2.296875 C 8.90625 -2.296875 9.53125 -2.414062 10.15625 -2.65625 C 10.789062 -2.90625 11.332031 -3.207031 11.78125 -3.5625 L 11.78125 -5.421875 Z M 8.375 -5.421875 "/></g></g></g><g fill="#dc2626" fill-opacity="1"><g transform="translate(24.537607, 27.216597)"><g><path d="M 1.515625 0 L 1.515625 -14.765625 L 7.78125 -14.765625 C 9.363281 -14.765625 10.507812 -14.628906 11.21875 -14.359375 C 11.9375 -14.097656 12.507812 -13.628906 12.9375 -12.953125 C 13.363281 -12.273438 13.578125 -11.5 13.578125 -10.625 C 13.578125 -9.519531 13.25 -8.601562 12.59375 -7.875 C 11.945312 -7.15625 10.976562 -6.703125 9.6875 -6.515625 C 10.332031 -6.140625 10.863281 -5.726562 11.28125 -5.28125 C 11.695312 -4.832031 12.265625 -4.03125 12.984375 -2.875 L 14.78125 0 L 11.21875 0 L 9.0625 -3.21875 C 8.300781 -4.363281 7.773438 -5.082031 7.484375 -5.375 C 7.203125 -5.675781 6.90625 -5.878906 6.59375 -5.984375 C 6.28125 -6.097656 5.78125 -6.15625 5.09375 -6.15625 L 4.484375 -6.15625 L 4.484375 0 Z M 4.484375 -8.515625 L 6.703125 -8.515625 C 8.128906 -8.515625 9.019531 -8.570312 9.375 -8.6875 C 9.726562 -8.8125 10.003906 -9.019531 10.203125 -9.3125 C 10.410156 -9.613281 10.515625 -9.988281 10.515625 -10.4375 C 10.515625 -10.925781 10.378906 -11.320312 10.109375 -11.625 C 9.847656 -11.9375 9.476562 -12.132812 9 -12.21875 C 8.75 -12.25 8.019531 -12.265625 6.8125 -12.265625 L 4.484375 -12.265625 Z M 4.484375 -8.515625 "/></g></g></g><g fill="#f59e0b" fill-opacity="1"><g transform="translate(39.442392, 27.216597)"><g><path d="M 1.53125 0 L 1.53125 -14.765625 L 4.4375 -14.765625 L 10.46875 -4.90625 L 10.46875 -14.765625 L 13.25 -14.765625 L 13.25 0 L 10.25 0 L 4.296875 -9.625 L 4.296875 0 Z M 1.53125 0 "/></g></g></g></svg>
