<svg version="1.2" xmlns="http://www.w3.org/2000/svg" viewBox="0 0 307 347" width="512" height="512">
	<style>
		.s0 { opacity: 1;fill: #fefefe } 
		.s1 { opacity: 1;fill: #163751 } 
	</style>
	<g id="Layer 0">
		<path id="Path 0" fill-rule="evenodd" class="s0" d="m-612-203h21v882h1515v142h-1536zm672.75 311.41c-0.41 0-0.75-6.57-0.75-14.71 0-8.13 0.34-14.7 0.75-14.7 0.41 0 0.75 6.57 0.75 14.7 0 8.14-0.34 14.71-0.75 14.71zm-12.49-13.61c0.42 0.38 0.64 5.42 0.23 21.7l-0.5-11.2c-0.27-6.17-0.15-10.89 0.27-10.5zm210.36 5.2c0.36 0 1.61 1.24 4.88 5.5l-5.55-5-0.14 4.5c-0.11 3.94-0.18 4.07-0.52 1-0.21-1.93-0.15-4.06 0.14-4.75 0.28-0.69 0.82-1.25 1.19-1.25zm-106.12 76.11c0.55 0.03 0.44 0.24-0.25 0.47-0.69 0.23-1.02 1.09-0.75 1.92 0.27 0.83 1.17 1.5 2 1.5 0.83 0 1.5 0.45 1.5 1 0 0.62-1.24 0.53-3.25-0.23-1.79-0.68-3.48-1.36-3.75-1.51-0.27-0.16 0.4-0.94 1.5-1.74 1.1-0.8 2.45-1.44 3-1.41zm-111.49 2.89c0.55 0 1.11 1.61 1.25 3.59 0.13 1.97-0.1 3.77-0.51 4-0.41 0.22-0.98-0.26-1.25-1.09-0.27-0.83-0.5-2.63-0.5-4 0-1.38 0.45-2.5 1.01-2.5zm-41.28 17.5c0.21 2.2 0.21 6.02 0 8.5-0.21 2.47-0.38 0.67-0.38-4 0-4.67 0.17-6.7 0.38-4.5zm197 11.5c0.21 1.92 0.21 5.52 0 8-0.21 2.47-0.38 0.9-0.39-3.5 0-4.4 0.17-6.42 0.39-4.5zm-44.73 139.34c4.12 0 5.7 0.17 3.5 0.39-2.2 0.21-5.58 0.21-7.5 0-1.92-0.22-0.13-0.39 4-0.39z"/>
		<path id="Path 1" fill-rule="evenodd" class="s1" d="m157 1.7c2.48 0.27 12.38 2.96 22 5.98 9.63 3.02 35.95 11.36 58.5 18.52 22.55 7.17 47.19 14.89 54.76 17.17 7.57 2.27 13.76 4.36 13.75 4.63 0 0.27-2.94 1.4-13.07 4.5l0.05 16c0.04 15.83 0.07 16.03 2.61 18.5 1.41 1.37 2.77 3.4 3.02 4.5 0.25 1.1-0.68 7.29-2.08 13.75-1.4 6.46-2.54 12.87-2.54 14.25 0 1.87-2.27-0.85-8.96-10.75-4.93-7.29-8.98-14.04-9-15-0.02-0.96 0.63-3.1 1.46-4.75 0.83-1.65 1.95-3 2.5-3 0.62 0 1-5.5 1-14.5 0-7.98-0.34-14.51-0.75-14.52-0.41-0.01-11.55 3.33-24.75 7.41-13.2 4.08-39.52 12.24-58.5 18.13-18.98 5.9-36.08 11.17-38 11.71-1.92 0.54-5.3 0.74-7.5 0.43-2.2-0.31-22.9-6.62-46-14.03-23.1-7.4-54.15-17.29-69-21.98-14.85-4.69-28.35-9.04-30-9.67-2.96-1.14-2.9-1.18 5-3.64 4.4-1.37 17.9-5.65 30-9.5 12.1-3.85 34.38-11 49.5-15.87 15.13-4.88 34.02-10.87 42-13.33 7.98-2.46 15.63-4.69 17-4.95 1.38-0.27 4.52-0.27 7 0.01zm-22.28 46.04c-1.21 1.2-1.53 2.37-1 3.65 0.43 1.05 2.58 2.84 4.78 4 3.42 1.79 5.74 2.1 16 2.1 10.26 0 12.58-0.31 16-2.1 2.2-1.16 4.34-2.84 4.75-3.75q0.74-1.64-1.5-3.99c-1.24-1.3-4.05-2.87-6.25-3.5-2.2-0.63-8.27-1.12-13.5-1.1-5.68 0.02-11.11 0.62-13.5 1.48-2.2 0.8-4.8 2.24-5.78 3.21zm-73 32.27c0.43 0 17.88 5.47 38.78 12.15 20.9 6.67 41.38 13.13 53 16.57l8-2.26c4.4-1.24 20.83-6.31 36.5-11.27 15.67-4.96 32.33-10.2 37-11.64 4.67-1.45 9.29-2.84 10.25-3.1 1.61-0.42 1.73 0.64 1.25 27.99l-9.5 2.27c-5.23 1.24-18.5 4.05-29.5 6.24-11 2.18-27.42 5.36-53 10.13l-12-2.02c-6.6-1.12-24.37-4.52-39.5-7.57-15.12-3.04-30.65-6.34-41.5-9.12l-0.28-14.19c-0.15-7.81 0.07-14.19 0.5-14.18zm-14.22 14.76l0.5 21.23-3.87 4.75c-2.13 2.61-6.04 8.12-8.69 12.25-2.65 4.12-6.14 10.43-7.75 14-1.61 3.57-3.96 9.43-5.23 13-1.27 3.57-2.84 8.52-3.5 11-0.65 2.48-1.7 8.01-3.46 20.1l9.5 6.29c5.23 3.46 11.3 7.36 13.5 8.67 2.2 1.31 6.58 4.41 9.73 6.91 3.58 2.82 5.9 5.47 6.16 7.03 0.24 1.37 0.36 2.57 0.27 2.66-0.09 0.09-3.53-1.26-7.66-2.99-4.12-1.73-12.78-6.08-19.24-9.66-6.45-3.58-11.51-6.85-11.25-7.26 0.27-0.41 0.01-0.41-0.58 0-0.76 0.53-0.74 3.79 0.09 11.25 0.64 5.77 2.28 14.33 3.64 19 1.36 4.67 3.94 11.87 5.73 16 1.79 4.12 4.46 9.41 5.93 11.75 1.5 2.38 4.99 5.71 7.93 7.58 2.89 1.84 7.73 4.78 10.75 6.54 3.02 1.76 5.57 3.07 5.66 2.91 0.08-0.15-1.2-3.2-2.84-6.78-1.65-3.58-4.09-10.77-5.42-16-1.39-5.42-2.38-12.08-2.22-21.5l1.71 5.5c0.93 3.02 2.92 7.64 4.4 10.25 1.49 2.61 3.95 5.64 5.46 6.72 1.58 1.13 3.33 3.79 4.11 6.25 0.75 2.35 3.11 7.88 5.23 12.28 2.13 4.4 5.11 9.16 6.64 10.57 1.76 1.64 6.6 3.74 13.27 5.77 5.77 1.76 14.49 4.2 19.36 5.43 8.57 2.16 8.96 2.38 14.14 10.98l-4-0.71c-2.2-0.38-9.4-2-16-3.6-6.6-1.59-13.12-3.2-14.5-3.59-1.91-0.53-1.1 0.59 3.37 4.73 3.24 2.98 8.64 7.38 12 9.78 3.37 2.4 9.96 6.15 14.63 8.34 4.67 2.18 10.75 5.03 13.5 6.33 2.75 1.3 7.02 2.8 9.5 3.33 2.48 0.54 7.42 0.99 17.5 1.03l7.5-8.61c4.13-4.73 9.31-10.67 11.52-13.19 2.21-2.52 5.14-5.73 6.5-7.12 2.15-2.19 4.16-2.75 14.98-4.23 6.88-0.93 16.1-2.63 20.5-3.78 4.4-1.14 8.56-2.84 9.25-3.77 0.68-0.93 2.76-3.94 4.62-6.69 1.86-2.75 5.06-8.38 7.13-12.5 2.06-4.13 5.26-12 7.1-17.5 1.85-5.5 3.37-11.01 3.38-12.25 0.01-1.66-0.44-2.13-1.73-1.78-0.96 0.26-5.58 1.4-10.25 2.53-4.67 1.12-14.8 2.94-22.5 4.03-7.7 1.09-15.46 1.98-20.5 1.97l0.93-3.75c0.51-2.06 1.44-10.73 2.08-19.25 0.88-11.76 0.88-18.28 0-27-0.64-6.33-1.49-13.3-1.9-15.5-0.41-2.27-1.25-3.89-1.92-3.75-0.66 0.14-6.7 0.77-13.44 1.4-6.74 0.64-14.84 0.86-18 0.5-3.16-0.36-5.75-1.1-5.75-1.65 0-0.55-0.67-1-1.5-1-0.83 0-1.73-0.67-2-1.5-0.27-0.83 0.17-1.73 1-2 0.83-0.27 3.86-0.51 6.75-0.52 2.89-0.01 9.75-0.67 15.25-1.48 5.5-0.8 11.58-1.75 17-2.73l-0.81-4.14c-0.45-2.27-1.91-7.39-3.25-11.38-1.34-3.99-4.24-10.85-6.44-15.25-2.2-4.4-3.66-8.17-3.25-8.38 0.41-0.22 2.55-0.71 4.75-1.09 3.77-0.67 4.12-0.51 6.08 2.63 1.14 1.84 3.94 8.07 6.22 13.84 2.28 5.77 4.83 13.09 5.67 16.25 0.84 3.16 2.09 5.76 2.78 5.76 0.69 0.01 4.85-0.91 9.25-2.03 4.4-1.13 12.05-3.67 17-5.64 4.95-1.98 9.11-3.76 9.25-3.97 0.14-0.2-1.28-3.18-3.15-6.62-1.87-3.44-5.95-9.85-9.07-14.25-3.11-4.4-6.64-8.81-7.85-9.79-1.2-0.99-1.95-1.81-1.68-1.84 0.27-0.02 3.2-0.61 6.5-1.3 5.68-1.2 6.09-1.16 7.76 0.83 0.97 1.16 4.19 5.7 7.16 10.1 2.97 4.4 6.45 10.15 7.74 12.77 1.29 2.62 2.68 4.76 3.09 4.75 0.41-0.01 2.85-1.93 5.41-4.27 2.56-2.34 5.95-6.05 7.53-8.25 1.58-2.2 2.85-4.56 2.84-5.25-0.02-0.69-3.4-4.85-15.03-17.25l8.04-1.5 0.05-16 5.55 6c3.05 3.3 7.94 9.37 10.87 13.5 2.92 4.12 7.35 11.32 9.83 16 2.48 4.68 5.94 12.1 7.67 16.5 1.74 4.4 4.25 12.5 5.59 18 1.43 5.89 2.83 15.86 3.41 24.25 0.66 9.45 0.65 17.28-0.01 23.25-0.55 4.95-1.69 12.04-2.54 15.75-0.85 3.71-2.47 9.67-3.6 13.25-1.13 3.58-4.7 11.9-7.93 18.5-3.24 6.6-8.1 14.92-10.81 18.5-2.71 3.58-7.11 8.99-9.77 12.02-2.67 3.04-8.22 8.61-12.35 12.38-4.12 3.77-11.33 9.36-16 12.42-4.67 3.07-12.1 7.49-16.5 9.83-4.4 2.35-13.4 6.04-20 8.2-6.6 2.17-15.83 4.77-20.5 5.79-6.69 1.45-12.77 1.84-28.5 1.84-15.37 0-22.08-0.43-29-1.83-4.95-1-13.73-3.4-19.5-5.34-5.77-1.94-14.55-5.55-19.5-8.03-4.95-2.47-11.7-6.11-15-8.08-3.3-1.96-10.24-6.98-15.42-11.14-5.18-4.16-12.61-11.2-16.5-15.65-3.89-4.44-9.75-12.09-13.01-17-3.26-4.9-8.31-13.86-11.23-19.91-2.91-6.05-6.45-15.05-7.87-20-1.42-4.95-3.27-13.5-4.12-19-1.11-7.21-1.39-14.19-1.01-25 0.33-9.51 1.25-18.29 2.52-24 1.1-4.95 3.43-13.05 5.18-18 1.76-4.95 4.67-11.93 6.47-15.5 1.81-3.57 6.03-10.66 9.39-15.75 3.35-5.09 10.04-13.35 14.85-18.37zm219.46 57.77c-2.45 2.51-6.48 5.88-8.96 7.49l-4.5 2.91c4.11 12.84 6.11 20.62 7.08 25.57 1.05 5.31 1.69 12.66 1.82 20.67 0.06-3.45 0.19-4.49 0.34-2.17 0.2 3.02 0.2 8.2 0 11.5q-0.08 1.34-0.15 1.45c0.11 3.06 0.26 5.02 0.41 5.01 0.27-0.02 2.98-1.36 6-2.99 3.02-1.64 7.93-5.11 10.91-7.72l3.72-3.28q-0.17 0.29-0.37 0.53l-1.69 2c1.7-1.52 2.75-2.6 3.38-3.69l0.36-0.31q-0.01-0.19-0.02-0.38c0.59-1.4 0.58-2.98 0.43-5.62l-0.34-6-0.22 6q-0.03 0.9-0.1 1.72c-0.88-14.27-1.8-21.96-2.62-26.22-0.89-4.68-2.86-11.88-4.38-16-1.51-4.13-3.62-9.2-4.7-11.27l-1.95-3.76zm-49.95 24.48l-12.5 3.15c1.03 5.68 1.88 12.51 2.56 18.83 0.27 2.48 0.47 5.25 0.59 8.06q0.04 0.31 0.09 0.94c0.19 3.03 0.19 8.2 0 11.5q-0.06 0.88-0.11 1.23c-0.35 5.44-0.97 11.68-1.38 13.94l-0.75 4.18c7.75-0.77 13.82-1.67 18.5-2.49 4.67-0.82 12.32-2.59 17-3.92 4.67-1.34 8.72-2.69 9-3.02 0.27-0.32 0.44-6.96 0.38-14.75-0.07-8.17-0.81-17.98-1.75-23.17-0.89-4.95-2.54-12.15-3.66-16-1.12-3.85-2.17-7.03-2.34-7.07-0.16-0.04-3.19 1.17-6.72 2.69-3.53 1.52-12.04 4.17-18.91 5.9zm48.71 58.76q-5.79 2.72-5.75 4.47c0.02 0.96-0.91 5.46-2.06 10-1.15 4.54-3.62 12.08-5.48 16.75-1.87 4.68-4.98 11.2-6.92 14.5-1.94 3.3-3.41 6.11-3.27 6.24 0.15 0.13 4.27-2.12 9.17-5 6.08-3.57 9.98-6.67 12.27-9.74 1.84-2.47 5.53-8.77 8.19-14 2.66-5.22 5.97-13.32 7.37-18 1.4-4.67 2.77-9.96 3.06-11.75 0.28-1.79 0.44-3.21 0.36-3.17-0.09 0.04-2.63 1.63-5.65 3.53-3.03 1.89-8.11 4.67-11.29 6.17zm-205.06-116.78c0.74 0 2.49 0.46 3.89 1.02 1.4 0.56 9.61 1.92 18.25 3.02 8.64 1.1 19.08 2.92 23.21 4.05 4.12 1.14 13.8 3.47 21.5 5.2 11.98 2.69 15.8 3.12 26.5 3 10.94-0.12 12.28 0.04 10.75 1.29-1.04 0.84-1.55 2.23-1.25 3.42 0.27 1.1 2.3 3.35 4.5 5 2.2 1.65 4 3.68 4 4.5 0 0.83-0.9 2.06-2 2.75-1.1 0.69-1.66 1.6-1.25 2.03 0.41 0.43 1.53 0.76 2.5 0.75 1.2-0.02 1.75 0.75 1.75 2.47 0 2.19-0.44 2.5-3.5 2.5-1.93 0-4.63-0.45-6-1-1.48-0.59-2.61-1.92-2.75-3.25-0.24-2.17-0.52-2.23-7.75-1.68-4.13 0.31-6.04 0.65-4.25 0.75 2.9 0.16 3.19 0.45 2.75 2.68-0.47 2.33-0.24 2.5 3.5 2.5 2.2 0 4 0.34 4.01 0.75 0.01 0.41-2.13 1.54-4.75 2.51-2.62 0.96-5.66 1.76-6.76 1.76-1.1 0.01-2.45-0.45-3-1.03-0.69-0.71-2.42-0.72-5.5-0.03-2.48 0.56-6.08 2.14-8 3.51-1.93 1.38-4.4 2.49-5.5 2.48-1.28-0.02-2.55 1.12-3.5 3.14-1.07 2.25-3.24 4.02-7.5 6.12-3.3 1.62-6.59 3.47-7.3 4.12-0.71 0.64-1.27 2.86-1.25 4.92 0.03 2.06-0.18 4.43-0.45 5.25-0.28 0.83-1.29 1.51-2.25 1.52-0.97 0.01-2.32-0.56-3.02-1.25-0.7-0.7-1.26-2.51-1.25-4.02 0.01-1.75-0.8-3.3-2.23-4.26-1.24-0.83-3.63-1.5-5.3-1.5-1.68 0.01-3.59 0.57-4.24 1.26-0.95 1-2.05 0.98-5.45-0.1-3.66-1.16-4.69-1.15-7.26 0.13-1.65 0.81-3.53 2.1-4.17 2.85-0.64 0.75-1.87 3.4-2.74 5.87-0.86 2.48-1.59 5.18-1.61 6-0.03 0.83 0.86 2.74 1.98 4.25 1.43 1.94 2.92 2.75 5.04 2.75 2.06 0 3.86-0.94 5.75-3.01 1.63-1.79 3.76-3.02 5.25-3.03 1.37-0.01 2.82 0.34 3.21 0.76 0.39 0.43-0.39 2.92-1.75 5.53-1.35 2.61-2.24 5.2-1.96 5.75 0.27 0.55 1.51 0.99 2.75 0.97 1.23-0.02 3.06 0.77 4.05 1.75 1.44 1.41 1.68 2.71 1.19 6.28-0.53 3.85-0.28 4.84 1.69 6.81 1.88 1.87 3.03 2.2 6.07 1.75 2.08-0.31 3.97-0.12 4.25 0.44 0.27 0.55 1.4 1 2.5 1 1.1 0 2.19-0.79 2.44-1.75 0.24-0.96 2.6-2.79 5.25-4.06 3.39-1.62 5.1-1.99 5.81-1.23 0.55 0.59 1.67 1.06 2.5 1.04 0.82-0.02 3.07 0.7 5 1.6 1.92 0.9 4.85 1.54 6.5 1.42 1.65-0.12 4.01-0.18 5.25-0.12 1.23 0.06 2.24 0.66 2.24 1.35-0.01 0.69 2.02 3.16 4.5 5.5 3.73 3.52 5.41 4.36 9.76 4.91 2.88 0.36 6.31 1.37 7.6 2.25 1.3 0.87 3.03 2.94 3.86 4.59 0.82 1.65 1.22 3.79 0.89 4.75q-0.6 1.75 1.15 2.2c0.96 0.25 4.22 1.41 7.25 2.57 3.02 1.16 7.52 2.26 10 2.45 2.47 0.18 6.47 1.16 8.88 2.18 2.42 1.02 4.78 2.64 5.25 3.6 0.65 1.32-0.06 2.82-2.88 6.08-2.34 2.7-4.4 6.57-5.47 10.25-0.95 3.26-2.63 7.38-3.75 9.17-1.48 2.37-3.19 3.54-6.28 4.3-2.34 0.58-5.38 1.4-6.75 1.83-1.54 0.47-3.21 2.27-4.35 4.69-1.01 2.16-3.26 5.4-5 7.2-1.73 1.8-3.83 3.25-4.65 3.23-0.83-0.03-2.52 1.09-3.75 2.48-1.24 1.39-3.04 2.54-4 2.55-0.97 0.02-2.69 0.81-3.83 1.75-1.13 0.95-2.6 2.73-3.25 3.97-0.64 1.24-1.17 2.48-1.17 2.75 0 0.28 1.23 1.69 5.5 5.79l-7-0.65c-4.76-0.43-7.52-1.2-8.61-2.39-0.89-0.96-2.38-3.77-3.33-6.25-0.94-2.47-1.9-6.75-2.12-9.5-0.23-2.75-0.86-7.47-1.39-10.5-0.54-3.02-1.22-7.64-1.52-10.25-0.49-4.37-0.92-4.99-5.28-7.73-2.62-1.64-5.32-2.99-6-3-0.69-0.01-2.53-2.16-4.09-4.77-1.57-2.61-5.17-7.34-8-10.5-4.56-5.07-5.04-6.01-4.08-8 0.78-1.62 0.78-2.53-0.02-3.25-0.6-0.55-1.09-1.56-1.08-2.25 0.01-0.69 1.57-2.94 3.48-5 1.9-2.06 3.48-4.54 3.5-5.5 0.02-0.96-0.95-3.66-2.16-6-1.5-2.91-2.29-3.7-2.5-2.5-0.19 1.07-1.18 1.74-2.55 1.73-1.24-0.01-4.28-1.33-6.75-2.92-2.48-1.59-5.4-4.55-6.5-6.57-1.2-2.19-3.61-4.5-6-5.72-2.2-1.12-5.13-2.9-6.5-3.94-1.38-1.04-3.4-1.89-4.5-1.89-1.1 0.01-4.7-1.51-8-3.37-3.3-1.86-7.24-4.55-8.75-5.98-1.82-1.7-2.75-3.61-2.75-5.59 0-1.65-1.35-5.47-3-8.5-1.65-3.02-3-6.85-3-8.5 0-1.65-0.45-3-1-3-0.59 0-0.78 1.55-0.46 3.75 0.3 2.06 0.75 5.66 1 8 0.25 2.34 0.12 4.26-0.29 4.27-0.42 0.01-1.32-0.56-2.02-1.25-0.7-0.7-1.25-2.17-1.23-3.27 0.02-1.1-0.7-3.57-1.6-5.5-0.98-2.09-1.38-4.5-0.99-6 0.38-1.51 0.08-3.29-0.78-4.5-0.77-1.1-1.71-3.57-2.08-5.5q-0.67-3.5 0.97-7.5c0.97-2.36 4.66-6.86 9.02-11 6.57-6.24 7.38-7.41 7.42-10.75 0.03-2.77-0.48-4.01-1.96-4.75-1.1-0.55-2.08-1.37-2.17-1.83-0.09-0.46 1.28-2.15 3.06-3.75 1.77-1.61 4.84-4.61 6.82-6.67 1.98-2.06 4.2-3.75 4.94-3.75zm166.28 188.29c-2.44 2.64-3.98 4.76-3.43 4.72 0.55-0.04 4.53-2.65 8.85-5.79 4.32-3.15 7.98-6.06 8.13-6.47 0.15-0.41-0.01-0.7-0.36-0.65-0.34 0.06-2.45 0.85-4.69 1.75-2.24 0.91-6.06 3.81-8.5 6.44zm-39.68 2.65c-2.86 0.05-3.76 0.83-7.39 6.31-2.27 3.44-5.98 8.19-8.25 10.57l-4.11 4.32c4.65-1.07 8.7-2.26 12-3.34 3.3-1.07 8.92-3.55 12.5-5.51 3.57-1.95 9.76-5.97 13.75-8.92 3.98-2.95 7.25-5.59 7.25-5.87 0-0.27-1.47-0.44-3.25-0.36-1.79 0.08-6.85 0.72-11.25 1.44-4.4 0.71-9.47 1.32-11.25 1.36zm-129.69-15.44c4.26 3.85 10.27 8.91 13.34 11.24 3.08 2.33 5.93 4.24 6.35 4.25 0.41 0.01-1.65-2.8-4.58-6.24-2.93-3.44-6.64-7.99-8.25-10.13-1.61-2.13-4.95-4.89-7.42-6.12-2.48-1.23-5.49-2.57-6.69-2.96-1.86-0.62-2.06-0.46-1.34 1.12 0.46 1.01 4.32 4.99 8.59 8.84zm227.5-89.27q0.11 1.87 0.23 3.9-0.15 0.35-0.34 0.69l-1.32 1.16c0.72-1.2 1.21-3.16 1.43-5.75z"/>
	</g>
</svg>